<svg width="66" height="43" viewBox="0 0 66 43" fill="none" xmlns="http://www.w3.org/2000/svg">
<path d="M47.0249 12.5732H18.9749C18.5212 12.5732 18.1499 12.9504 18.1499 13.4114C18.1499 13.8725 18.5212 14.2497 18.9749 14.2497H21.8624C22.3162 14.2497 22.6874 14.6268 22.6874 15.0879C22.6874 15.5489 22.3162 15.9261 21.8624 15.9261H20.6249C20.1712 15.9261 19.7999 16.3033 19.7999 16.7643C19.7999 17.2253 20.1712 17.6025 20.6249 17.6025H26.3999C26.8537 17.6025 27.2249 17.2253 27.2249 16.7643C27.2249 16.3033 26.8537 15.9261 26.3999 15.9261H25.1624C24.7087 15.9261 24.3374 15.5489 24.3374 15.0879C24.3374 14.6268 24.7087 14.2497 25.1624 14.2497H47.0249C47.4787 14.2497 47.8499 13.8725 47.8499 13.4114C47.8499 12.9504 47.4787 12.5732 47.0249 12.5732Z" fill="#E77629"/>
<path d="M46.2 15.926H29.7C29.2462 15.926 28.875 16.3032 28.875 16.7642C28.875 17.2252 29.2462 17.6024 29.7 17.6024H38.3625C38.8162 17.6024 39.1875 17.9796 39.1875 18.4406C39.1875 18.9017 38.8162 19.2789 38.3625 19.2789H22.275C21.8212 19.2789 21.45 19.656 21.45 20.1171C21.45 20.5781 21.8212 20.9553 22.275 20.9553H31.35C31.8037 20.9553 32.175 21.3325 32.175 21.7935C32.175 22.2545 31.8037 22.6317 31.35 22.6317H28.05C27.5962 22.6317 27.225 23.0089 27.225 23.4699C27.225 23.9309 27.5962 24.3081 28.05 24.3081H37.95C38.4037 24.3081 38.775 23.9309 38.775 23.4699C38.775 23.0089 38.4037 22.6317 37.95 22.6317H34.65C34.1962 22.6317 33.825 22.2545 33.825 21.7935C33.825 21.3325 34.1962 20.9553 34.65 20.9553H44.1375C44.5912 20.9553 44.9625 20.5781 44.9625 20.1171C44.9625 19.656 44.5912 19.2789 44.1375 19.2789H41.6625C41.2087 19.2789 40.8375 18.9017 40.8375 18.4406C40.8375 17.9796 41.2087 17.6024 41.6625 17.6024H46.2C46.6537 17.6024 47.025 17.2252 47.025 16.7642C47.025 16.3032 46.6537 15.926 46.2 15.926Z" fill="#E77629"/>
<path d="M33 0.419189C27.3075 0.419189 22.6875 5.11315 22.6875 10.8968H43.3125C43.3125 5.11315 38.6925 0.419189 33 0.419189Z" fill="#E77629"/>
<path fill-rule="evenodd" clip-rule="evenodd" d="M50.49 33.4025C52.7175 33.4025 54.4087 35.2465 54.4087 37.384C54.4087 39.6471 52.5938 41.3655 50.49 41.3655C48.2625 41.3655 46.5713 39.5214 46.5713 37.384C46.6125 35.1208 48.3862 33.4025 50.49 33.4025ZM15.3862 33.4025C17.6137 33.4025 19.305 35.2465 19.305 37.384C19.305 39.6471 17.49 41.3655 15.3862 41.3655C13.1587 41.3655 11.4675 39.5214 11.4675 37.384C11.5087 35.1208 13.2825 33.4025 15.3862 33.4025ZM33.0412 32.4805C33.4538 32.4805 33.66 32.7738 33.66 33.1091V41.7846C33.66 42.2037 33.3713 42.4551 33.0412 42.4551C32.67 42.4551 32.4225 42.1618 32.4225 41.8684V33.0672C32.4637 32.7738 32.67 32.4805 33.0412 32.4805ZM0.5775 32.4805C0.99 32.4805 1.19625 32.8157 1.19625 33.1091V36.8811H6.64125V32.9834C6.64125 32.6481 7.0125 32.4386 7.21875 32.4386C7.59 32.4386 7.8375 32.7319 7.8375 33.0672V41.7427C7.8375 42.0779 7.59 42.3713 7.21875 42.3713C6.93 42.3713 6.6 42.1198 6.64125 41.7846V38.1384H1.2375V41.7846C1.27875 42.1198 0.99 42.4132 0.61875 42.4132C0.33 42.4132 0 42.1618 0 41.8265V33.0253C0 32.7319 0.28875 32.4805 0.5775 32.4805ZM23.1825 32.4386H27.1012C28.2975 32.4386 29.865 33.2768 29.865 35.1627C29.865 36.42 29.205 37.384 27.5137 37.8031C27.8025 38.1803 29.37 40.4015 30.1125 41.4493C30.6488 42.2456 29.5762 42.8323 29.1637 42.2037C28.5037 41.2397 26.0287 37.7612 25.8638 37.5516C25.5338 37.0906 25.8638 36.5458 26.2763 36.5458H27.2662C28.0087 36.5458 28.6275 35.9171 28.6275 35.1627C28.6275 34.2407 28.0087 33.6959 27.06 33.654H23.76V41.9103C23.76 42.3294 23.43 42.5389 23.1412 42.5389C22.8937 42.5389 22.5637 42.3294 22.5637 41.9522V32.9834C22.5637 32.69 22.9762 32.4386 23.1825 32.4386ZM58.41 32.4386C58.6163 32.4805 58.8638 32.6481 59.1113 32.7738C60.39 33.5701 61.7513 34.6179 62.9475 36.0848C63.6488 36.923 64.3087 37.9707 64.7625 38.8089V33.0672C64.7625 32.6481 65.0512 32.4386 65.34 32.4386C65.7525 32.4386 65.9587 32.7738 65.9587 33.0672V41.8265C65.9587 42.1198 65.7525 42.4132 65.34 42.4132C64.7625 42.4132 64.68 41.7846 64.5563 41.4074C64.4737 41.1978 64.3912 40.9044 64.3087 40.7368C64.1025 40.2339 63.7725 39.7729 63.5662 39.2699C62.7825 37.5516 60.6787 35.2885 58.905 34.1569V41.8265C58.905 42.2456 58.6575 42.5389 58.2863 42.5389C57.9975 42.5389 57.6675 42.3294 57.6675 41.9522V32.9415C57.7088 32.6062 58.0388 32.3547 58.41 32.4386ZM37.0012 32.3547H43.6425C44.22 32.3547 44.55 32.9834 44.1787 33.4444C43.9312 33.7797 43.6838 34.115 43.4362 34.4083C41.7038 36.6715 39.93 39.0185 38.1562 41.2397H43.6012C44.055 41.2397 44.3025 41.4912 44.3025 41.8684C44.3025 42.1618 44.1375 42.497 43.6012 42.497H36.8775C36.4238 42.497 36.0112 41.9941 36.465 41.4074C36.8363 40.9464 37.4137 40.192 37.455 40.1501C39.105 37.9707 40.7962 35.7914 42.4875 33.612H37.0838C36.63 33.612 36.3412 33.3606 36.3412 32.9834C36.3412 32.69 36.5475 32.3547 37.0012 32.3547ZM50.49 32.229C53.3775 32.229 55.5637 34.576 55.5637 37.384C55.5637 40.3177 53.2537 42.5389 50.49 42.5389C47.6025 42.5389 45.4162 40.192 45.4162 37.384C45.4162 34.4503 47.7262 32.229 50.49 32.229ZM15.3862 32.229C18.2738 32.229 20.46 34.576 20.46 37.384C20.46 40.3177 18.15 42.5389 15.3862 42.5389C12.4987 42.5389 10.3125 40.192 10.3125 37.384C10.3125 34.4503 12.6225 32.229 15.3862 32.229Z" fill="white"/>
</svg>
